<?xml version="1.0" encoding="UTF-8" standalone="no"?>
<!-- Created with Inkscape (http://www.inkscape.org/) -->

<svg
   xmlns:dc="http://purl.org/dc/elements/1.1/"
   xmlns:cc="http://creativecommons.org/ns#"
   xmlns:rdf="http://www.w3.org/1999/02/22-rdf-syntax-ns#"
   xmlns:svg="http://www.w3.org/2000/svg"
   xmlns="http://www.w3.org/2000/svg"
   xmlns:sodipodi="http://sodipodi.sourceforge.net/DTD/sodipodi-0.dtd"
   xmlns:inkscape="http://www.inkscape.org/namespaces/inkscape"
   width="297mm"
   height="210mm"
   viewBox="0 0 297 210"
   id="svg3558"
   version="1.1"
   inkscape:version="0.91 r13725"
   sodipodi:docname="last2.svg">
  <defs
     id="defs3560" />
  <sodipodi:namedview
     inkscape:document-units="mm"
     pagecolor="#ffffff"
     bordercolor="#666666"
     borderopacity="1.0"
     inkscape:pageopacity="0.0"
     inkscape:pageshadow="2"
     inkscape:zoom="0.61399264"
     inkscape:cx="683.78112"
     inkscape:cy="331.7036"
     inkscape:current-layer="layer1"
     id="namedview3562"
     showgrid="false"
     inkscape:window-width="1366"
     inkscape:window-height="744"
     inkscape:window-x="0"
     inkscape:window-y="24"
     inkscape:window-maximized="1" />
  <metadata
     id="metadata3564">
    <rdf:RDF>
      <cc:Work
         rdf:about="">
        <dc:format>image/svg+xml</dc:format>
        <dc:type
           rdf:resource="http://purl.org/dc/dcmitype/StillImage" />
        <dc:title></dc:title>
      </cc:Work>
    </rdf:RDF>
  </metadata>
  <g
     inkscape:label="Layer 1"
     inkscape:groupmode="layer"
     id="layer1">
    <path
       style="fill:#000000"
       d="m 129.73858,205.33229 c -6.76388,-0.87581 -22.37034,-5.71278 -29.63196,-9.18394 -4.182073,-1.99909 -10.870573,-6.18354 -12.775413,-7.99253 -0.6035,-0.57314 -1.56915,-2.27692 -2.14587,-3.78618 -1.03183,-2.70029 -2.79015,-4.77579 -4.04594,-4.77579 -0.69646,0 -5.03839,-4.36399 -8.1148,-8.15605 -1.64109,-2.02284 -2.1482,-2.94234 -1.97918,-3.58868 0.31428,-1.20179 -0.28333,-2.14685 -1.73876,-2.74971 -0.84974,-0.35197 -1.93798,-1.58902 -3.50257,-3.98149 -1.2484,-1.90899 -2.85273,-4.12615 -3.56517,-4.92703 -0.71245,-0.80088 -2.39618,-3.3395 -3.74163,-5.64137 -2.99603,-5.12578 -3.50936,-5.47297 -14.45734,-9.77835 -14.1977,-5.58335 -21.92466,-9.2375 -26.15401,-12.36848 -1.99903,-1.47987 -2.11012,-1.66347 -2.7057,-4.47201 -0.76995,-3.63077 -1.26661,-8.14266 -1.89385,-17.20458 l -0.48641,-7.027314 3.18259,-2.955204 C 33.750127,80.24554 43.638987,72.533563 66.481687,57.361109 95.920117,37.807664 101.66424,35.716367 130.10731,34.196506 c 5.46574,-0.292063 8.52736,-0.619874 9.06061,-0.970127 0.44296,-0.290954 6.25843,-5.395954 12.92326,-11.344443 15.36686,-13.7152211 21.78263,-19.2366641 22.54905,-19.4058181 1.11515,-0.24612 8.62265,6.379061 8.62265,7.6092681 0,0.889464 -3.2486,3.905809 -11.87946,11.030134 -9.21051,7.602799 -17.11449,15.371353 -17.11449,16.821265 0,0.566921 0.23989,1.122818 0.53308,1.235326 0.29319,0.112507 1.97025,-0.211708 3.72681,-0.720479 1.75656,-0.508771 6.3641,-1.583598 10.23899,-2.388505 9.53573,-1.980801 16.6133,-3.852146 24.68649,-6.527234 7.71219,-2.55547 6.94,-2.650835 9.89387,1.221882 2.17166,2.847181 2.40021,3.757991 1.0699,4.263774 -2.57718,0.97984 -16.74427,3.439178 -39.47775,6.853141 -15.38515,2.310435 -21.4781,3.547156 -26.1751,5.3129 -4.71754,1.773471 -15.88377,7.32798 -17.51717,8.713717 l -1.40943,1.195719 1.00673,1.083875 c 0.55371,0.596131 2.22992,1.812194 3.72492,2.702361 1.495,0.890166 2.71818,1.755165 2.71818,1.922218 0,0.455052 -4.21933,1.550097 -8.32309,2.160098 -4.25694,0.632769 -4.69997,0.843825 -4.45553,2.122563 0.20467,1.070654 -0.28883,1.312057 -0.66709,0.326319 -0.34724,-0.904894 0.42969,-2.145029 1.47719,-2.357901 0.49195,-0.09997 1.89111,-0.29416 3.10926,-0.431527 2.59346,-0.292456 7.30496,-1.391307 7.77877,-1.814216 0.18091,-0.16148 -0.64322,-0.842246 -1.8314,-1.512812 -2.91665,-1.646059 -4.73929,-3.234231 -4.73929,-4.129633 0,-0.4072 0.49833,-1.134734 1.10741,-1.616739 1.90581,-1.508221 15.1689,-7.897203 19.10044,-9.200908 5.24446,-1.739074 8.71528,-2.391345 31.13561,-5.85132 21.41504,-3.304835 32.41333,-5.288156 33.42431,-6.0274 0.57643,-0.421501 0.52551,-0.644134 -0.48361,-2.11426 -0.62035,-0.903733 -1.68246,-2.303404 -2.36027,-3.11038 l -1.23236,-1.467229 -4.204,1.418375 c -7.62967,2.574151 -16.66911,5.002398 -26.20757,7.040086 -5.1736,1.105228 -10.62926,2.394556 -12.12369,2.865174 -2.19833,0.692285 -2.83269,0.759783 -3.32222,0.3535 -2.21849,-1.841177 1.56499,-6.143238 15.84136,-18.01266 9.6647,-8.035272 12.54751,-10.638268 12.54751,-11.329619 0,-0.8328421 -7.11318,-7.3037131 -8.02869,-7.3037131 -0.44107,0 -8.04585,6.583786 -22.89301,19.8194741 -8.67477,7.733228 -13.29839,11.592088 -13.89294,11.594988 -3.81638,0.01862 -22.25641,1.340623 -25.65017,1.83892 -13.579333,1.993817 -22.960743,6.45804 -46.267163,22.016638 -21.33957,14.245591 -33.65781,23.802859 -47.49894,36.852691 l -5.36822,5.061317 0.2606,3.858854 c 0.45681,6.76421 1.41524,16.65803 1.87567,19.36256 0.39082,2.29568 0.66104,2.82596 2.19767,4.31286 2.31214,2.2373 12.83501,7.38798 24.52372,12.00372 10.04509,3.9667 13.11695,5.47304 14.49089,7.10588 l 0.95928,1.14003 0.84696,-1.18945 c 1.3431,-1.8862 2.47725,-4.7012 3.8749,-9.61763 l 1.29837,-4.56716 -0.81907,-0.81907 c -0.45049,-0.45049 -2.11012,-1.14225 -3.68806,-1.53725 -1.57795,-0.39499 -4.86233,-1.56117 -7.29862,-2.5915 -5.87564,-2.48485 -25.07361,-11.97293 -26.47712,-13.08561 -2.15626,-1.70942 -1.78901,-2.22395 6.82627,-9.56392 4.36352,-3.71759 15.19095,-13.10781 24.06095,-20.867143 31.57209,-27.618749 37.54905,-32.198408 49.953563,-38.275323 12.50228,-6.124818 22.7522,-8.370289 22.7522,-4.984375 0,1.197885 -3.51309,3.940133 -9.23685,7.210111 -2.97619,1.700298 -5.74912,3.543976 -6.16206,4.097071 -0.63168,0.846064 -0.78748,2.024197 -0.98196,7.425259 -0.15568,4.323977 -0.0781,6.978083 0.23765,8.130331 0.46869,1.710305 0.46903,1.710543 1.47671,1.050286 0.81281,-0.532575 1.20326,-0.571402 2.0171,-0.200594 0.55505,0.2529 1.48177,0.459816 2.05938,0.459816 1.02101,0 1.03015,-0.02215 0.32893,-0.796991 -0.84944,-0.938627 -0.69443,-1.023354 2.5761,-1.408088 1.19956,-0.141108 3.77793,-0.880574 5.72972,-1.643252 4.08413,-1.595908 6.47625,-1.769819 7.99568,-0.581301 1.06304,0.831523 2.41617,1.067876 2.41617,0.42204 0,-0.210843 -0.81546,-0.944398 -1.81213,-1.630121 -0.99666,-0.685723 -1.81212,-1.419278 -1.81212,-1.630121 0,-0.221284 2.08549,-0.387411 4.933,-0.392956 5.71197,-0.01111 7.64568,-0.366492 9.02007,-1.657657 1.37902,-1.295526 1.8618,-0.40925 1.05957,1.94516 -0.33344,0.978574 -0.50569,1.879779 -0.38279,2.002677 0.51153,0.51153 4.5183,-3.191502 5.72211,-5.288332 0.40109,-0.698646 0.49755,-0.694236 2.30533,0.105433 1.0377,0.459027 2.61188,1.417337 3.49818,2.12959 l 1.61145,1.294995 1.51958,-1.068166 c 4.05204,-2.848329 5.15396,-3.813816 5.2725,-4.619679 0.0708,-0.48115 0.37179,-0.87482 0.66892,-0.87482 0.89381,0 2.60118,2.36643 3.08035,4.269388 0.56877,2.258798 0.91109,2.454954 2.13985,1.22619 0.80091,-0.800909 0.9473,-1.259453 0.76357,-2.391695 -0.21641,-1.333536 -0.15263,-1.42678 1.32798,-1.941511 2.29508,-0.797881 7.29578,-0.70436 8.9081,0.166598 0.96489,0.521227 1.51213,0.602044 2.06676,0.305214 1.37548,-0.736136 1.32099,-1.582156 -0.16385,-2.543905 -1.40451,-0.909718 -1.75001,-1.647255 -0.99132,-2.116152 0.22653,-0.140001 2.26517,-0.432646 4.53031,-0.650318 3.07428,-0.295428 4.37368,-0.598262 5.12517,-1.194463 1.66401,-1.320138 6.49829,-3.486989 10.30881,-4.620677 6.45019,-1.919033 16.39642,-1.797146 21.05407,0.25801 3.77196,1.664345 9.66819,9.03437 14.31351,17.891238 1.27781,2.436297 2.93562,5.426298 3.68401,6.644447 0.7484,1.218149 1.70519,3.573907 2.12621,5.235019 1.75565,6.926877 5.31034,13.233803 12.931,22.942875 4.45924,5.681292 4.87534,6.584962 5.28035,11.467732 0.18461,2.22566 0.34355,4.38487 0.3532,4.79825 0.01,0.41337 1.24594,1.95368 2.74731,3.42289 2.0171,1.97392 3.21602,3.61748 4.59239,6.29555 6.36263,12.38007 13.21707,33.6406 13.21373,40.98522 -10e-4,2.57125 -0.17682,3.59863 -0.78612,4.59792 -2.11555,3.46959 -7.93837,2.416 -16.24004,-2.93852 -4.59892,-2.96627 -8.8339,-6.42585 -16.19457,-13.22943 -12.41867,-11.47878 -15.6782,-13.6642 -20.33603,-13.63471 -3.32632,0.0211 -4.0385,0.3395 -13.99541,6.25792 -5.55855,3.30402 -8.57261,5.35115 -9.4633,6.42742 -2.2494,2.71807 -3.59731,4.01785 -9.06153,8.73803 -8.32688,7.19303 -12.88033,10.42137 -30.70268,21.76781 -11.42815,7.27563 -14.49698,9.44952 -14.49698,10.26932 0,0.66027 1.20564,0.87418 8.1246,1.44153 5.69009,0.46659 8.94292,1.26075 10.29864,2.51437 1.15482,1.06784 1.13837,1.32598 -0.16121,2.53038 -2.17304,2.01392 -11.83596,4.16873 -22.44812,5.00589 -6.00839,0.47399 -17.39279,0.45945 -21.14965,-0.027 z m 17.89986,-65.78949 c 3.31455,-0.54437 9.56009,-1.73131 13.87898,-2.63764 9.86681,-2.0706 14.50983,-2.7279 21.69035,-3.07067 3.69493,-0.17639 5.69247,-0.42665 5.69179,-0.71311 -4e-4,-0.24274 -0.64999,-1.5176 -1.44317,-2.83302 -0.79317,-1.31542 -1.7077,-3.05539 -2.03228,-3.8666 -0.32458,-0.81121 -1.53258,-2.29192 -2.68445,-3.29047 -1.55933,-1.35179 -2.66002,-2.87789 -4.3091,-5.97455 -4.82911,-9.06816 -8.7559,-11.00745 -22.3495,-11.03756 -7.37707,-0.0164 -7.76661,0.0236 -10.87274,1.11536 -6.45241,2.26788 -16.14168,8.06982 -19.20742,11.50143 -0.95296,1.06668 -2.54985,2.32509 -3.54864,2.79645 -1.90907,0.90096 -7.04747,5.34855 -8.44212,7.30715 -0.49149,0.69024 -0.71183,1.42845 -0.55126,1.8469 0.37109,0.96706 5.88252,3.45711 11.41341,5.15655 11.902,3.65705 15.16051,4.60826 15.92035,4.64737 0.45064,0.0232 3.53124,-0.40322 6.8458,-0.94759 z M 64.133957,128.23795 c -0.22836,-5.41459 1.29394,-8.64547 4.0735,-8.64547 1.77761,0 1.9878,-0.26995 1.27837,-1.64183 -0.32339,-0.62537 -0.58798,-1.64948 -0.58798,-2.2758 0,-2.21235 4.18831,-9.78043 8.34404,-15.07729 1.17892,-1.502637 1.8631,-2.818684 2.00139,-3.849758 0.27839,-2.075512 2.47084,-5.029605 4.40875,-5.940309 1.8087,-0.849986 2.01627,-1.102233 2.5787,-3.133787 0.48693,-1.758817 2.41333,-4.102097 4.08149,-4.964739 1.33368,-0.68967 1.83651,-0.493856 2.37608,0.925302 0.3182,0.836938 0.48756,0.925873 0.98189,0.515617 0.84953,-0.705049 0.74388,-1.327211 -0.40937,-2.410626 -1.3804,-1.296823 -1.26471,-2.22088 0.47792,-3.817348 2.03725,-1.866361 7.226913,-4.782069 7.990233,-4.489154 0.55221,0.211902 0.54648,0.351149 -0.0521,1.264676 -0.36995,0.564605 -0.58631,1.112877 -0.4808,1.218379 0.39959,0.399589 2.96684,-1.715975 4.06305,-3.348182 1.05787,-1.575128 1.27563,-1.701103 2.94061,-1.701103 2.31548,0 2.6997,0.818278 1.1458,2.440203 -0.9171,0.957236 -1.00042,1.184041 -0.43501,1.184041 2.69025,0 5.38124,-3.971725 3.78026,-5.579423 -0.65469,-0.657438 -0.63679,-15.046371 0.0207,-16.647003 0.31136,-0.757986 1.69532,-1.812778 4.59179,-3.499675 10.05071,-5.8535 11.91073,-7.354477 10.78887,-8.706233 -2.19205,-2.641264 -19.62257,3.689301 -31.508503,11.443524 -8.76523,5.718329 -14.2679,10.213418 -38.96123,31.827117 -8.74853,7.657452 -18.26217,15.904882 -21.14143,18.327621 -8.32703,7.00675 -11.87946,10.30897 -11.87946,11.04275 0,1.06398 6.47409,4.68232 18.12122,10.12786 9.28814,4.34261 15.07937,6.67794 17.37012,7.00454 1.07713,0.15357 2.17163,0.60335 2.58812,1.06357 1.24046,1.37069 1.59547,0.72138 1.45296,-2.65747 z m 162.457263,-9.88572 c 0.42348,-0.35146 4.20945,-0.57635 13.16405,-0.78195 13.90513,-0.31927 14.20775,-0.37254 17.51602,-3.08342 3.64061,-2.98321 4.10358,-5.09866 1.91228,-8.73769 -3.02096,-5.01679 -7.32187,-9.677261 -11.08699,-12.013847 -5.5187,-3.424839 -14.93099,-5.825155 -18.77674,-4.788432 -2.04969,0.552544 -4.65074,3.246485 -6.01794,6.23285 -2.93322,6.406989 -1.84329,19.976079 1.99054,24.781209 0.37717,0.47272 0.47591,0.42625 0.57948,-0.27277 0.0687,-0.46343 0.39236,-1.06461 0.7193,-1.33595 z M 168.96726,59.188408 c 0.13688,-0.221481 -0.12424,-0.402694 -0.58028,-0.402694 -0.45603,0 -0.82915,0.181213 -0.82915,0.402694 0,0.221482 0.26112,0.402694 0.58027,0.402694 0.31915,0 0.69227,-0.181212 0.82916,-0.402694 z m 30.32284,-7.329027 c 0.51589,-0.515891 0.66776,-1.93293 0.20716,-1.93293 -0.40176,0 -2.14009,1.692498 -2.14009,2.083663 0,0.505086 1.38513,0.397068 1.93293,-0.150733 z"
       id="path3632"
       inkscape:connector-curvature="0" />
    <path
       style="fill:#800000"
       d="M 199.72836,518.19229 C 195.27152,513.54036 182.86951,507.32433 158.52861,497.54254 112.15016,478.9046 77.817427,462.69069 65.94851,453.82084 55.711876,446.1708 54.342084,440.36903 50.0059,386.29559 49.040823,374.26081 48.054794,362.19577 47.814724,359.48437 l -0.436491,-4.9298 20.30436,-18.84939 c 52.016427,-48.28903 91.723687,-79.03973 165.988527,-128.54741 81.32604,-54.2149 113.26325,-69.95773 157.48861,-77.63095 10.51678,-1.8247 56.11935,-5.6812 83.20698,-7.03662 l 15.54732,-0.77796 6.09071,-4.53811 c 7.52346,-5.60563 15.91558,-12.84329 53.21944,-45.898318 38.85856,-34.432645 66.7614,-58.592281 69.1415,-59.866075 1.47647,-0.790181 3.65891,0.412031 9.29316,5.119217 12.18813,10.182673 19.64955,18.395088 18.77755,20.667501 -0.7093,1.848394 -11.85659,11.629506 -58.11289,50.990728 -29.39219,25.010927 -43.70593,40.434557 -43.70593,47.094917 0,1.36135 0.95242,3.3371 2.11649,4.39056 1.98477,1.7962 3.57934,1.56393 25.62429,-3.7327 12.92929,-3.10645 33.02596,-7.81505 44.65928,-10.46356 27.36576,-6.23025 50.24887,-12.49972 73.70617,-20.19383 l 18.8485,-6.18242 3.03291,3.54317 c 1.66809,1.94874 5.25592,6.7025 7.97295,10.56391 4.30416,6.11704 4.70914,7.18957 3.14623,8.3324 -3.72116,2.72098 -33.94499,8.17298 -124.23237,22.40999 -86.69342,13.67029 -94.48189,15.34367 -117.7149,25.29154 -21.89555,9.3752 -54.56636,26.44244 -56.62162,29.57914 -3.0729,4.68983 -0.85597,8.10849 10.05193,15.5009 5.36769,3.63774 9.92331,7.10569 10.12359,7.70655 0.39441,1.18323 -15.82229,5.04481 -29.6627,7.06337 -4.7308,0.68998 -9.52455,2.08989 -10.6528,3.11093 -2.26925,2.05365 -2.73606,7.26398 -0.82226,9.17778 0.87098,0.87098 0.69247,1.43497 -0.61271,1.93581 -1.27155,0.48795 -2.18688,-0.20102 -2.95653,-2.22536 -1.37419,-3.61439 -1.3872,-42.88188 -0.0166,-49.99996 1.27521,-6.62255 4.33025,-9.27586 24.97545,-21.69115 27.92472,-16.79297 35.37148,-24.22043 29.25172,-29.17591 -8.12668,-6.58061 -39.76686,2.23296 -81.23758,22.62926 -43.78981,21.53689 -57.77728,32.30682 -180.23377,138.77457 -28.82013,25.05719 -63.88148,55.50408 -77.91411,67.6598 -24.914633,21.58218 -30.341321,27.06132 -30.341321,30.63457 0,3.4513 8.52547,8.62786 40.591671,24.64681 42.81815,21.39018 57.92699,28.16051 77.9734,34.94019 9.15405,3.09589 17.63965,6.62482 18.85689,7.84206 2.18312,2.18312 2.16366,2.38278 -1.43366,14.70683 -6.36872,21.81863 -14.06696,39.55753 -17.16697,39.55753 -0.50696,0 -2.39731,-1.54017 -4.20079,-3.42259 z"
       id="path3636"
       inkscape:connector-curvature="0"
       transform="scale(0.28222222,0.28222222)" />
  </g>
</svg>
